<svg xmlns="http://www.w3.org/2000/svg" xml:space="preserve" width="647" height="150" viewBox="0 0 647 150" preserveAspectRatio="xMidYMid meet">
  <style>
    .st0 { fill: #d84b31; }
  </style>
  <path d="M73.5 67.2 34.2 67l49.4-44.3.6-.5c3.8-3.4 5.4-6.6 5.4-10.4 0-2-.5-3.9-1.5-5.6-2-3-5.4-4.9-9.6-5h-66C5.4 1.2.9 6 .9 12.6.9 19.5 5.4 24 12.5 24h36.4L13.3 57C7 63 4.6 67.5 4.6 72.7c0 8.7 6.7 13.6 17.5 13.6l37.9.1-49.5 41.2c-5.1 4.3-7.6 7.7-7.6 11.9 0 6 4 10.3 10.4 10.5 3.2.2 6.9-1 10.6-4.2l55.8-48c8.4-7.2 10.2-12.2 10.2-17 0-7.9-6.3-13.6-16.4-13.6zM530.6 1.2c-6.5 0-10.6 2.8-15 8.2L468 66.9l-.1-54.9c0-6.7-4.9-10.9-11.4-10.9S445.1 5.3 445.1 12l.1 75.2c0 9.7 6.1 13.6 13.1 13.6 5.5 0 9.5-2.6 15.4-9.7l46.6-56.7v55.4c0 6.7 4.9 10.9 11.4 10.9s11.4-4.2 11.4-10.9v-73c0-9.5-4.6-15.6-12.5-15.6zM636.1 80h-52.9V60.6h48.2c6.5 0 9.8-3.8 9.8-9.7S638 41 631.5 41h-48.2V21.7h50.3c6.6 0 11.1-3.9 11.1-10 0-6-4.5-10.3-11.1-10.3h-52.2c-13.3 0-20.8 6.4-20.8 20.1v59c0 13.7 7.5 19.8 20.8 19.8h54.8c7 0 10.4-4.3 10.4-10.3-.1-6.1-3.5-10-10.5-10zM302.6 1.1c-6.5 0-11.4 4-11.4 10.6v1.8C284.5 6.4 274.4 0 261.6 0c-30.1 0-50.5 21.8-50.5 51.4 0 30 20.4 50.4 49.8 50.4 13.6 0 23.7-6.3 30.3-13.5v1.9c0 6.7 4.9 10.6 11.4 10.6S314 96.6 314 89.9v-78c-.1-6.8-5-10.8-11.4-10.8zm-38.9 80c-16.5 0-29-12.6-29-29.7 0-17.5 12.4-30.7 29.2-30.7 17.1 0 28.9 13.2 28.9 30.7 0 17.1-11.6 29.7-29.1 29.7zM186.4 1.1C179.9 1.1 175 5.3 175 12v28.9h-51V12c0-6.7-4.9-10.9-11.4-10.9S101.2 5.3 101.2 12v77.9c0 6.7 4.9 10.9 11.4 10.9S124 96.6 124 89.9V62.3h51V90c0 6.7 4.9 10.9 11.4 10.9s11.4-4.2 11.4-10.9V12c0-6.7-4.9-10.9-11.4-10.9zM416.5 1.1c-6.5 0-11.4 4.2-11.4 10.9v28.6h-51V12c0-6.7-4.9-10.9-11.4-10.9S331.3 5.3 331.3 12v77.9c0 6.7 4.9 10.9 11.4 10.9s11.4-4.2 11.4-10.9V62.1h51v27.8c0 6.7 4.9 10.9 11.4 10.9s11.4-4.2 11.4-10.9V12c-.1-6.7-4.9-10.9-11.4-10.9z" class="st0"/>
</svg>
