<svg xmlns="http://www.w3.org/2000/svg" viewBox="0 0 256 256" fill="none">
  <title>80 историй о главном favicon</title>
  <g transform="translate(20 66.484) scale(0.885246)">
    <path
      d="M74.4307 0.5C78.4767 0.5 82.2612 1.30912 85.7773 2.93066C89.4132 4.41395 92.5828 6.50475 95.2812 9.20312C97.9779 11.8997 100.068 15.0674 101.551 18.7002C103.175 22.2183 103.985 26.005 103.985 30.0537V47.7646C103.985 54.5043 101.893 60.5122 97.7178 65.7715L97.7188 65.7725L95.1504 69.2568L97.7188 72.7412C101.892 78.13 103.985 84.1375 103.985 90.749V108.46C103.985 112.509 103.175 116.359 101.554 120.006C100.07 123.642 97.9796 126.811 95.2812 129.51L95.2725 129.519C92.5749 132.081 89.4087 134.169 85.7783 135.782L85.7695 135.785C82.2548 137.272 78.4733 138.014 74.4307 138.014H30.0537C26.0111 138.014 22.166 137.272 18.5225 135.788L18.5117 135.784L18.502 135.779C15.005 134.165 11.9073 132.078 9.21289 129.519L9.20312 129.51C6.5045 126.811 4.34821 123.641 2.73242 120.006L2.72852 119.999L2.72559 119.991C1.24128 116.348 0.5 112.503 0.5 108.46V90.749C0.5 84.1336 2.59524 78.1227 6.77344 72.7314L6.77637 72.7285L9.5166 69.2568L6.77637 65.7861V65.7852C2.59407 60.5228 0.5 54.5098 0.5 47.7646V30.0537C0.500036 26.0111 1.24153 22.2295 2.72852 18.7148L2.73242 18.707C4.34822 15.0715 6.50449 11.9018 9.20312 9.20312C11.8998 6.50645 15.0024 4.41492 18.5078 2.93066C22.1546 1.30986 26.005 0.500039 30.0537 0.5H74.4307ZM213.187 0.5C217.233 0.5 221.017 1.30912 224.533 2.93066C228.169 4.41395 231.339 6.50475 234.037 9.20312C236.734 11.8997 238.823 15.0674 240.307 18.7002C241.93 22.2183 242.741 26.005 242.741 30.0537V108.46C242.741 112.509 241.93 116.359 240.31 120.006C238.826 123.642 236.735 126.811 234.037 129.51L234.028 129.519C231.331 132.081 228.165 134.169 224.534 135.782L224.525 135.785C221.011 137.272 217.229 138.014 213.187 138.014H168.81C164.767 138.014 160.922 137.272 157.278 135.788L157.268 135.784L157.258 135.779C153.761 134.165 150.663 132.078 147.969 129.519L147.959 129.51C145.26 126.811 143.104 123.641 141.488 120.006L141.484 119.999L141.481 119.991C139.997 116.348 139.256 112.503 139.256 108.46V30.0537C139.256 26.0111 139.997 22.2295 141.484 18.7148L141.488 18.707C143.104 15.0715 145.26 11.9018 147.959 9.20312C150.656 6.50645 153.758 4.41492 157.264 2.93066C160.91 1.30986 164.761 0.500039 168.81 0.5H213.187ZM30.0537 77.3193C26.3427 77.3194 23.1527 78.657 20.458 81.3516C17.9011 83.9085 16.624 87.0305 16.624 90.749V108.46C16.624 112.171 17.8956 115.358 20.4492 118.048L20.7031 118.284C23.3422 120.691 26.4511 121.89 30.0537 121.89H74.4307C78.149 121.89 81.2712 120.613 83.8281 118.057C86.5229 115.362 87.8613 112.171 87.8613 108.46V90.749C87.8613 87.0385 86.5238 83.9193 83.8369 81.3604L83.8281 81.3516L83.8203 81.3428C81.2614 78.6559 78.1412 77.3193 74.4307 77.3193H30.0537ZM168.81 16.624C165.099 16.6241 161.908 17.9618 159.214 20.6562C156.657 23.2131 155.38 26.3354 155.38 30.0537V108.46C155.38 112.171 156.651 115.358 159.205 118.048L159.459 118.284C162.098 120.691 165.207 121.89 168.81 121.89H213.187C216.905 121.89 220.027 120.613 222.584 118.057C225.279 115.362 226.617 112.171 226.617 108.46V30.0537C226.617 26.3433 225.28 23.2239 222.593 20.665L222.584 20.6562L222.576 20.6475C220.017 17.9606 216.897 16.624 213.187 16.624H168.81ZM195.874 55.2246C196.679 55.2247 197.391 55.5496 197.997 56.1475C198.757 56.7634 199.16 57.56 199.16 58.5107V80.2021C199.16 81.1533 198.756 81.9503 197.996 82.5664C197.39 83.1636 196.678 83.4882 195.874 83.4883H186.322C185.317 83.4883 184.47 83.2365 183.879 82.6455C183.288 82.0544 183.036 81.2078 183.036 80.2021V58.5107C183.036 57.5052 183.288 56.6595 183.879 56.0684C184.47 55.4772 185.317 55.2246 186.322 55.2246H195.874ZM30.0537 16.624C26.3428 16.6241 23.1526 17.9618 20.458 20.6562C17.9011 23.2131 16.6241 26.3354 16.624 30.0537V47.7646C16.624 51.4755 17.8957 54.6632 20.4492 57.3525L20.7031 57.5898C23.3422 59.9963 26.4512 61.1952 30.0537 61.1953H74.4307C78.1491 61.1953 81.2712 59.9182 83.8281 57.3613C86.5229 54.6666 87.8613 51.4758 87.8613 47.7646V30.0537C87.8613 26.3433 86.5238 23.2239 83.8369 20.665L83.8281 20.6562L83.8203 20.6475C81.2614 17.9606 78.1412 16.624 74.4307 16.624H30.0537Z"
      fill="#D84B31"
      stroke="#D84B31"
    />
  </g>
</svg>
