<svg width="877" height="150" viewBox="0 0 877 150" fill="none" xmlns="http://www.w3.org/2000/svg">
<path d="M557.638 66.514H550.228V36.796L530.104 66.514H521.368V27.514H528.778V56.452L548.98 27.514H557.638V66.514Z" fill="#2B2522"/>
<path d="M574.136 36.952C571.536 39.552 570.236 42.88 570.236 46.936C570.236 50.992 571.536 54.32 574.136 56.92C576.736 59.52 579.934 60.82 583.73 60.82C586.434 60.82 588.878 60.17 591.062 58.87C593.298 57.518 594.962 55.646 596.054 53.254L602.918 56.374C601.15 59.91 598.55 62.718 595.118 64.798C591.686 66.878 587.89 67.918 583.73 67.918C577.906 67.918 572.966 65.942 568.91 61.99C564.854 58.038 562.826 53.02 562.826 46.936C562.826 40.852 564.854 35.834 568.91 31.882C572.966 27.93 577.906 25.954 583.73 25.954C587.994 25.954 591.842 27.02 595.274 29.152C598.758 31.284 601.358 34.196 603.074 37.888L596.21 41.008C595.118 38.512 593.454 36.562 591.218 35.158C588.982 33.754 586.486 33.052 583.73 33.052C579.934 33.052 576.736 34.352 574.136 36.952Z" fill="#2B2522"/>
<path d="M639.287 27.514V34.456H626.417V66.514H619.007V34.456H606.137V27.514H639.287Z" fill="#2B2522"/>
<path d="M653.85 36.952C651.198 39.552 649.872 42.88 649.872 46.936C649.872 50.992 651.198 54.32 653.85 56.92C656.554 59.52 659.856 60.82 663.756 60.82C667.656 60.82 670.932 59.52 673.584 56.92C676.288 54.32 677.64 50.992 677.64 46.936C677.64 42.88 676.288 39.552 673.584 36.952C670.932 34.352 667.656 33.052 663.756 33.052C659.856 33.052 656.554 34.352 653.85 36.952ZM648.624 61.99C644.516 58.038 642.462 53.02 642.462 46.936C642.462 40.852 644.516 35.834 648.624 31.882C652.784 27.93 657.828 25.954 663.756 25.954C669.684 25.954 674.702 27.93 678.81 31.882C682.97 35.834 685.05 40.852 685.05 46.936C685.05 53.02 682.97 58.038 678.81 61.99C674.702 65.942 669.684 67.918 663.756 67.918C657.828 67.918 652.784 65.942 648.624 61.99Z" fill="#2B2522"/>
<path d="M690.239 27.514H697.649V82.114H690.239V27.514ZM701.627 37.108C698.975 39.708 697.649 43.036 697.649 47.092C697.649 51.096 698.975 54.398 701.627 56.998C704.331 59.598 707.633 60.898 711.533 60.898C715.433 60.898 718.709 59.598 721.361 56.998C724.065 54.398 725.417 51.096 725.417 47.092C725.417 43.036 724.065 39.708 721.361 37.108C718.709 34.456 715.433 33.13 711.533 33.13C707.633 33.13 704.331 34.456 701.627 37.108ZM699.911 62.068C696.323 58.116 694.529 53.124 694.529 47.092C694.529 41.008 696.323 35.99 699.911 32.038C703.551 28.034 708.023 26.032 713.327 26.032C718.787 26.032 723.389 28.034 727.133 32.038C730.929 35.99 732.827 40.982 732.827 47.014C732.827 53.046 730.929 58.064 727.133 62.068C723.389 66.02 718.787 67.996 713.327 67.996C708.023 67.996 703.551 66.02 699.911 62.068Z" fill="#2B2522"/>
<path d="M774.249 66.514H766.839V36.796L746.715 66.514H737.979V27.514H745.389V56.452L765.591 27.514H774.249V66.514Z" fill="#2B2522"/>
<path d="M799.327 21.664C795.583 21.664 792.411 20.442 789.811 17.998C787.211 15.554 785.885 12.59 785.833 9.10601H791.917C791.917 11.134 792.619 12.824 794.023 14.176C795.427 15.476 797.221 16.126 799.405 16.126C801.641 16.126 803.513 15.45 805.021 14.098C806.581 12.694 807.361 11.03 807.361 9.10601H813.445C813.445 12.486 812.041 15.424 809.233 17.92C806.425 20.416 803.123 21.664 799.327 21.664ZM817.267 66.514H809.857V36.796L789.733 66.514H780.997V27.514H788.407V56.452L808.609 27.514H817.267V66.514Z" fill="#2B2522"/>
<path d="M531.196 93.952C528.544 96.552 527.218 99.88 527.218 103.936C527.218 107.992 528.544 111.32 531.196 113.92C533.9 116.52 537.202 117.82 541.102 117.82C545.002 117.82 548.278 116.52 550.93 113.92C553.634 111.32 554.986 107.992 554.986 103.936C554.986 99.88 553.634 96.552 550.93 93.952C548.278 91.352 545.002 90.052 541.102 90.052C537.202 90.052 533.9 91.352 531.196 93.952ZM525.97 118.99C521.862 115.038 519.808 110.02 519.808 103.936C519.808 97.852 521.862 92.834 525.97 88.882C530.13 84.93 535.174 82.954 541.102 82.954C547.03 82.954 552.048 84.93 556.156 88.882C560.316 92.834 562.396 97.852 562.396 103.936C562.396 110.02 560.316 115.038 556.156 118.99C552.048 122.942 547.03 124.918 541.102 124.918C535.174 124.918 530.13 122.942 525.97 118.99Z" fill="#2B2522"/>
<path d="M586.608 123.514V84.514H613.596V91.456H594.018V123.514H586.608Z" fill="#2B2522"/>
<path d="M618.809 116.26C620.837 116.26 622.397 115.61 623.489 114.31C624.633 113.01 625.205 111.372 625.205 109.396V84.514H653.909V123.514H646.499V91.768H632.693V110.488C632.693 114.024 631.471 117.092 629.027 119.692C626.583 122.24 623.437 123.514 619.589 123.514H617.015V116.26H618.809Z" fill="#2B2522"/>
<path d="M683.852 106.12L673.556 107.368C668.824 107.94 666.458 109.708 666.458 112.672C666.458 114.232 667.108 115.48 668.408 116.416C669.708 117.3 671.476 117.742 673.712 117.742C676.78 117.742 679.224 116.858 681.044 115.09C682.916 113.322 683.852 110.982 683.852 108.07H686.66C686.66 112.75 685.23 116.65 682.37 119.77C679.51 122.838 675.948 124.372 671.684 124.372C667.992 124.372 664.95 123.332 662.558 121.252C660.218 119.12 659.048 116.39 659.048 113.062C659.048 109.786 660.192 107.082 662.48 104.95C664.768 102.766 667.888 101.466 671.84 101.05L683.852 99.646V98.398C683.852 96.266 682.994 94.42 681.278 92.86C679.562 91.3 677.508 90.52 675.116 90.52C672.88 90.52 670.904 91.118 669.188 92.314C667.472 93.51 666.38 95.044 665.912 96.916L658.97 94.654C659.958 91.378 661.908 88.726 664.82 86.698C667.732 84.67 671.034 83.656 674.726 83.656C679.25 83.656 683.15 85.06 686.426 87.868C689.702 90.676 691.34 94.004 691.34 97.852V123.514H683.852V106.12Z" fill="#2B2522"/>
<path d="M720.453 91.222H705.399V100.894H721.077C722.637 100.894 723.937 100.478 724.977 99.646C726.069 98.762 726.615 97.67 726.615 96.37C726.615 94.862 726.017 93.64 724.821 92.704C723.677 91.716 722.221 91.222 720.453 91.222ZM721.233 106.822H705.399V116.806H721.233C723.001 116.806 724.457 116.338 725.601 115.402C726.797 114.466 727.395 113.322 727.395 111.97C727.395 110.462 726.797 109.24 725.601 108.304C724.457 107.316 723.001 106.822 721.233 106.822ZM722.013 123.514H697.989V84.514H721.233C724.873 84.514 727.915 85.528 730.359 87.556C732.803 89.584 734.025 92.158 734.025 95.278C734.025 96.994 733.557 98.58 732.621 100.036C731.737 101.44 730.489 102.506 728.877 103.234C730.697 104.17 732.127 105.496 733.167 107.212C734.259 108.876 734.805 110.748 734.805 112.828C734.805 115.844 733.583 118.392 731.139 120.472C728.695 122.5 725.653 123.514 722.013 123.514Z" fill="#2B2522"/>
<path d="M740.016 123.514V84.514H747.426V100.426H769.968V84.514H777.378V123.514H769.968V107.446H747.426V123.514H740.016Z" fill="#2B2522"/>
<path d="M793.928 93.952C791.276 96.552 789.95 99.88 789.95 103.936C789.95 107.992 791.276 111.32 793.928 113.92C796.632 116.52 799.934 117.82 803.834 117.82C807.734 117.82 811.01 116.52 813.662 113.92C816.366 111.32 817.718 107.992 817.718 103.936C817.718 99.88 816.366 96.552 813.662 93.952C811.01 91.352 807.734 90.052 803.834 90.052C799.934 90.052 796.632 91.352 793.928 93.952ZM788.702 118.99C784.594 115.038 782.54 110.02 782.54 103.936C782.54 97.852 784.594 92.834 788.702 88.882C792.862 84.93 797.906 82.954 803.834 82.954C809.762 82.954 814.78 84.93 818.888 88.882C823.048 92.834 825.128 97.852 825.128 103.936C825.128 110.02 823.048 115.038 818.888 118.99C814.78 122.942 809.762 124.918 803.834 124.918C797.906 124.918 792.862 122.942 788.702 118.99Z" fill="#2B2522"/>
<path d="M830.317 123.514V84.514H838.897L853.483 108.85L868.069 84.514H876.649V123.514H869.239V94.966L855.901 117.742H851.221L837.727 94.966V123.514H830.317Z" fill="#2B2522"/>
<path d="M284.163 136.514C280.183 136.514 276.402 135.784 272.82 134.325C269.371 132.733 266.319 130.677 263.666 128.156C261.013 125.503 258.89 122.385 257.298 118.803C255.839 115.221 255.109 111.44 255.109 107.46V89.749C255.109 83.2483 257.165 77.3447 261.278 72.038L264.263 68.257L261.278 64.476C257.165 59.302 255.109 53.3983 255.109 46.765V29.054C255.109 25.074 255.839 21.3593 257.298 17.91C258.89 14.328 261.013 11.2103 263.666 8.55701C266.319 5.90367 269.371 3.84734 272.82 2.388C276.402 0.796002 280.183 0 284.163 0H328.54C332.52 0 336.235 0.796002 339.684 2.388C343.266 3.84734 346.384 5.90367 349.037 8.55701C351.69 11.2103 353.747 14.328 355.206 17.91C356.798 21.3593 357.594 25.074 357.594 29.054V46.765C357.594 53.3983 355.538 59.302 351.425 64.476L348.639 68.257L351.425 72.038C355.538 77.3447 357.594 83.2483 357.594 89.749V107.46C357.594 111.44 356.798 115.221 355.206 118.803C353.747 122.385 351.69 125.503 349.037 128.156C346.384 130.677 343.266 132.733 339.684 134.325C336.235 135.784 332.52 136.514 328.54 136.514H284.163ZM284.163 75.819C280.316 75.819 276.999 77.212 274.213 79.998C271.56 82.6513 270.233 85.9017 270.233 89.749V107.46C270.233 111.307 271.56 114.624 274.213 117.41C276.999 120.063 280.316 121.39 284.163 121.39H328.54C332.387 121.39 335.638 120.063 338.291 117.41C341.077 114.624 342.47 111.307 342.47 107.46V89.749C342.47 85.9017 341.077 82.6513 338.291 79.998C335.638 77.212 332.387 75.819 328.54 75.819H284.163ZM284.163 15.124C280.316 15.124 276.999 16.517 274.213 19.303C271.56 21.9563 270.233 25.2067 270.233 29.054V46.765C270.233 50.6123 271.56 53.929 274.213 56.715C276.999 59.3683 280.316 60.695 284.163 60.695H328.54C332.387 60.695 335.638 59.3683 338.291 56.715C341.077 53.929 342.47 50.6123 342.47 46.765V29.054C342.47 25.2067 341.077 21.9563 338.291 19.303C335.638 16.517 332.387 15.124 328.54 15.124H284.163Z" fill="#D84B31"/>
<path d="M437.645 79.202V57.511C437.645 55.6537 438.574 54.725 440.431 54.725H449.983C450.646 54.725 451.243 54.9903 451.774 55.521C452.437 56.0517 452.769 56.715 452.769 57.511V79.202C452.769 79.998 452.437 80.6613 451.774 81.192C451.243 81.7227 450.646 81.988 449.983 81.988H440.431C438.574 81.988 437.645 81.0593 437.645 79.202ZM422.919 136.514C418.939 136.514 415.158 135.784 411.576 134.325C408.127 132.733 405.075 130.677 402.422 128.156C399.769 125.503 397.646 122.385 396.054 118.803C394.595 115.221 393.865 111.44 393.865 107.46V29.054C393.865 25.074 394.595 21.3593 396.054 17.91C397.646 14.328 399.769 11.2103 402.422 8.55701C405.075 5.90367 408.127 3.84734 411.576 2.388C415.158 0.796002 418.939 0 422.919 0H467.296C471.276 0 474.991 0.796002 478.44 2.388C482.022 3.84734 485.14 5.90367 487.793 8.55701C490.446 11.2103 492.503 14.328 493.962 17.91C495.554 21.3593 496.35 25.074 496.35 29.054V107.46C496.35 111.44 495.554 115.221 493.962 118.803C492.503 122.385 490.446 125.503 487.793 128.156C485.14 130.677 482.022 132.733 478.44 134.325C474.991 135.784 471.276 136.514 467.296 136.514H422.919ZM422.919 15.124C419.072 15.124 415.755 16.517 412.969 19.303C410.316 21.9563 408.989 25.2067 408.989 29.054V107.46C408.989 111.307 410.316 114.624 412.969 117.41C415.755 120.063 419.072 121.39 422.919 121.39H467.296C471.143 121.39 474.394 120.063 477.047 117.41C479.833 114.624 481.226 111.307 481.226 107.46V29.054C481.226 25.2067 479.833 21.9563 477.047 19.303C474.394 16.517 471.143 15.124 467.296 15.124H422.919Z" fill="#D84B31"/>
<path fill-rule="evenodd" clip-rule="evenodd" d="M0.694444 55.0695C0.694444 38.1942 13.6802 24.514 30.5556 24.514H94.4444C111.32 24.514 125 38.1942 125 55.0695C125 71.9449 125 102.083 125 118.958C125 135.834 111.32 149.514 94.4444 149.514H63.5417C63.5417 149.514 80.2083 134.335 91.6667 124.861C103.125 115.387 101.042 110.983 101.042 107.5C101.042 101.77 94.7549 98.0271 87.1528 98.0271H55.2083L94.3951 62.7946L94.8632 62.3682C97.8264 59.4705 100.694 58.7164 100.694 52.639C100.694 50.9342 100.867 49.6375 99.3055 47.0834C97.7437 44.5293 93.75 43.7815 93.75 43.7815H36.7007C31.1528 43.7815 27.637 47.6152 27.6369 52.8047C27.6369 57.9942 31.1528 62.5226 36.7007 62.5226C42.2486 62.5226 67.3611 62.5226 67.3611 62.5226L36.7007 92.5695C31.7797 97.689 31.2235 98.2299 31.2235 102.662C31.2235 110.075 37.8526 114.252 46.295 114.252H77.4305L34.7222 149.514H30.5556C13.6802 149.514 0 135.834 0 118.958L0.694444 55.0695Z" fill="#2B2522"/>
</svg>
