<svg width="431" height="373" viewBox="0 0 431 373" fill="none" xmlns="http://www.w3.org/2000/svg">
<mask id="path-1-outside-1_168_199" maskUnits="userSpaceOnUse" x="34.8047" y="209.592" width="359" height="118" fill="black">
<rect fill="white" x="34.8047" y="209.592" width="359" height="118"/>
<path d="M73.6347 268H66.2247V238.282L46.1007 268H37.3647V229H44.7747V257.938L64.9767 229H73.6347V268Z"/>
<path d="M90.1323 238.438C87.5323 241.038 86.2323 244.366 86.2323 248.422C86.2323 252.478 87.5323 255.806 90.1323 258.406C92.7323 261.006 95.9303 262.306 99.7263 262.306C102.43 262.306 104.874 261.656 107.058 260.356C109.294 259.004 110.958 257.132 112.05 254.74L118.914 257.86C117.146 261.396 114.546 264.204 111.114 266.284C107.682 268.364 103.886 269.404 99.7263 269.404C93.9023 269.404 88.9623 267.428 84.9063 263.476C80.8503 259.524 78.8223 254.506 78.8223 248.422C78.8223 242.338 80.8503 237.32 84.9063 233.368C88.9623 229.416 93.9023 227.44 99.7263 227.44C103.99 227.44 107.838 228.506 111.27 230.638C114.754 232.77 117.354 235.682 119.07 239.374L112.206 242.494C111.114 239.998 109.45 238.048 107.214 236.644C104.978 235.24 102.482 234.538 99.7263 234.538C95.9303 234.538 92.7323 235.838 90.1323 238.438Z"/>
<path d="M155.284 229V235.942H142.414V268H135.004V235.942H122.134V229H155.284Z"/>
<path d="M169.847 238.438C167.195 241.038 165.869 244.366 165.869 248.422C165.869 252.478 167.195 255.806 169.847 258.406C172.551 261.006 175.853 262.306 179.753 262.306C183.653 262.306 186.929 261.006 189.581 258.406C192.285 255.806 193.637 252.478 193.637 248.422C193.637 244.366 192.285 241.038 189.581 238.438C186.929 235.838 183.653 234.538 179.753 234.538C175.853 234.538 172.551 235.838 169.847 238.438ZM164.621 263.476C160.513 259.524 158.459 254.506 158.459 248.422C158.459 242.338 160.513 237.32 164.621 233.368C168.781 229.416 173.825 227.44 179.753 227.44C185.681 227.44 190.699 229.416 194.807 233.368C198.967 237.32 201.047 242.338 201.047 248.422C201.047 254.506 198.967 259.524 194.807 263.476C190.699 267.428 185.681 269.404 179.753 269.404C173.825 269.404 168.781 267.428 164.621 263.476Z"/>
<path d="M206.236 229H213.646V283.6H206.236V229ZM217.624 238.594C214.972 241.194 213.646 244.522 213.646 248.578C213.646 252.582 214.972 255.884 217.624 258.484C220.328 261.084 223.63 262.384 227.53 262.384C231.43 262.384 234.706 261.084 237.358 258.484C240.062 255.884 241.414 252.582 241.414 248.578C241.414 244.522 240.062 241.194 237.358 238.594C234.706 235.942 231.43 234.616 227.53 234.616C223.63 234.616 220.328 235.942 217.624 238.594ZM215.908 263.554C212.32 259.602 210.526 254.61 210.526 248.578C210.526 242.494 212.32 237.476 215.908 233.524C219.548 229.52 224.02 227.518 229.324 227.518C234.784 227.518 239.386 229.52 243.13 233.524C246.926 237.476 248.824 242.468 248.824 248.5C248.824 254.532 246.926 259.55 243.13 263.554C239.386 267.506 234.784 269.482 229.324 269.482C224.02 269.482 219.548 267.506 215.908 263.554Z"/>
<path d="M290.246 268H282.836V238.282L262.712 268H253.976V229H261.386V257.938L281.588 229H290.246V268Z"/>
<path d="M315.324 223.15C311.58 223.15 308.408 221.928 305.808 219.484C303.208 217.04 301.882 214.076 301.83 210.592H307.914C307.914 212.62 308.616 214.31 310.02 215.662C311.424 216.962 313.218 217.612 315.402 217.612C317.638 217.612 319.51 216.936 321.018 215.584C322.578 214.18 323.358 212.516 323.358 210.592H329.442C329.442 213.972 328.038 216.91 325.23 219.406C322.422 221.902 319.12 223.15 315.324 223.15ZM333.264 268H325.854V238.282L305.73 268H296.994V229H304.404V257.938L324.606 229H333.264V268Z"/>
<path d="M47.1927 295.438C44.5407 298.038 43.2147 301.366 43.2147 305.422C43.2147 309.478 44.5407 312.806 47.1927 315.406C49.8967 318.006 53.1987 319.306 57.0987 319.306C60.9987 319.306 64.2747 318.006 66.9267 315.406C69.6307 312.806 70.9827 309.478 70.9827 305.422C70.9827 301.366 69.6307 298.038 66.9267 295.438C64.2747 292.838 60.9987 291.538 57.0987 291.538C53.1987 291.538 49.8967 292.838 47.1927 295.438ZM41.9667 320.476C37.8587 316.524 35.8047 311.506 35.8047 305.422C35.8047 299.338 37.8587 294.32 41.9667 290.368C46.1267 286.416 51.1707 284.44 57.0987 284.44C63.0267 284.44 68.0447 286.416 72.1527 290.368C76.3127 294.32 78.3927 299.338 78.3927 305.422C78.3927 311.506 76.3127 316.524 72.1527 320.476C68.0447 324.428 63.0267 326.404 57.0987 326.404C51.1707 326.404 46.1267 324.428 41.9667 320.476Z"/>
<path d="M102.605 325V286H129.593V292.942H110.015V325H102.605Z"/>
<path d="M134.806 317.746C136.834 317.746 138.394 317.096 139.486 315.796C140.63 314.496 141.202 312.858 141.202 310.882V286H169.906V325H162.496V293.254H148.69V311.974C148.69 315.51 147.468 318.578 145.024 321.178C142.58 323.726 139.434 325 135.586 325H133.012V317.746H134.806Z"/>
<path d="M199.849 307.606L189.553 308.854C184.821 309.426 182.455 311.194 182.455 314.158C182.455 315.718 183.105 316.966 184.405 317.902C185.705 318.786 187.473 319.228 189.709 319.228C192.777 319.228 195.221 318.344 197.041 316.576C198.913 314.808 199.849 312.468 199.849 309.556H202.657C202.657 314.236 201.227 318.136 198.367 321.256C195.507 324.324 191.945 325.858 187.681 325.858C183.989 325.858 180.947 324.818 178.555 322.738C176.215 320.606 175.045 317.876 175.045 314.548C175.045 311.272 176.189 308.568 178.477 306.436C180.765 304.252 183.885 302.952 187.837 302.536L199.849 301.132V299.884C199.849 297.752 198.991 295.906 197.275 294.346C195.559 292.786 193.505 292.006 191.113 292.006C188.877 292.006 186.901 292.604 185.185 293.8C183.469 294.996 182.377 296.53 181.909 298.402L174.967 296.14C175.955 292.864 177.905 290.212 180.817 288.184C183.729 286.156 187.031 285.142 190.723 285.142C195.247 285.142 199.147 286.546 202.423 289.354C205.699 292.162 207.337 295.49 207.337 299.338V325H199.849V307.606Z"/>
<path d="M236.45 292.708H221.396V302.38H237.074C238.634 302.38 239.934 301.964 240.974 301.132C242.066 300.248 242.612 299.156 242.612 297.856C242.612 296.348 242.014 295.126 240.818 294.19C239.674 293.202 238.218 292.708 236.45 292.708ZM237.23 308.308H221.396V318.292H237.23C238.998 318.292 240.454 317.824 241.598 316.888C242.794 315.952 243.392 314.808 243.392 313.456C243.392 311.948 242.794 310.726 241.598 309.79C240.454 308.802 238.998 308.308 237.23 308.308ZM238.01 325H213.986V286H237.23C240.87 286 243.912 287.014 246.356 289.042C248.8 291.07 250.022 293.644 250.022 296.764C250.022 298.48 249.554 300.066 248.618 301.522C247.734 302.926 246.486 303.992 244.874 304.72C246.694 305.656 248.124 306.982 249.164 308.698C250.256 310.362 250.802 312.234 250.802 314.314C250.802 317.33 249.58 319.878 247.136 321.958C244.692 323.986 241.65 325 238.01 325Z"/>
<path d="M256.013 325V286H263.423V301.912H285.965V286H293.375V325H285.965V308.932H263.423V325H256.013Z"/>
<path d="M309.925 295.438C307.273 298.038 305.947 301.366 305.947 305.422C305.947 309.478 307.273 312.806 309.925 315.406C312.629 318.006 315.931 319.306 319.831 319.306C323.731 319.306 327.007 318.006 329.659 315.406C332.363 312.806 333.715 309.478 333.715 305.422C333.715 301.366 332.363 298.038 329.659 295.438C327.007 292.838 323.731 291.538 319.831 291.538C315.931 291.538 312.629 292.838 309.925 295.438ZM304.699 320.476C300.591 316.524 298.537 311.506 298.537 305.422C298.537 299.338 300.591 294.32 304.699 290.368C308.859 286.416 313.903 284.44 319.831 284.44C325.759 284.44 330.777 286.416 334.885 290.368C339.045 294.32 341.125 299.338 341.125 305.422C341.125 311.506 339.045 316.524 334.885 320.476C330.777 324.428 325.759 326.404 319.831 326.404C313.903 326.404 308.859 324.428 304.699 320.476Z"/>
<path d="M346.314 325V286H354.894L369.48 310.336L384.066 286H392.646V325H385.236V296.452L371.898 319.228H367.218L353.724 296.452V325H346.314Z"/>
</mask>
<path d="M73.6347 268H66.2247V238.282L46.1007 268H37.3647V229H44.7747V257.938L64.9767 229H73.6347V268Z" fill="#2B2522"/>
<path d="M90.1323 238.438C87.5323 241.038 86.2323 244.366 86.2323 248.422C86.2323 252.478 87.5323 255.806 90.1323 258.406C92.7323 261.006 95.9303 262.306 99.7263 262.306C102.43 262.306 104.874 261.656 107.058 260.356C109.294 259.004 110.958 257.132 112.05 254.74L118.914 257.86C117.146 261.396 114.546 264.204 111.114 266.284C107.682 268.364 103.886 269.404 99.7263 269.404C93.9023 269.404 88.9623 267.428 84.9063 263.476C80.8503 259.524 78.8223 254.506 78.8223 248.422C78.8223 242.338 80.8503 237.32 84.9063 233.368C88.9623 229.416 93.9023 227.44 99.7263 227.44C103.99 227.44 107.838 228.506 111.27 230.638C114.754 232.77 117.354 235.682 119.07 239.374L112.206 242.494C111.114 239.998 109.45 238.048 107.214 236.644C104.978 235.24 102.482 234.538 99.7263 234.538C95.9303 234.538 92.7323 235.838 90.1323 238.438Z" fill="#2B2522"/>
<path d="M155.284 229V235.942H142.414V268H135.004V235.942H122.134V229H155.284Z" fill="#2B2522"/>
<path d="M169.847 238.438C167.195 241.038 165.869 244.366 165.869 248.422C165.869 252.478 167.195 255.806 169.847 258.406C172.551 261.006 175.853 262.306 179.753 262.306C183.653 262.306 186.929 261.006 189.581 258.406C192.285 255.806 193.637 252.478 193.637 248.422C193.637 244.366 192.285 241.038 189.581 238.438C186.929 235.838 183.653 234.538 179.753 234.538C175.853 234.538 172.551 235.838 169.847 238.438ZM164.621 263.476C160.513 259.524 158.459 254.506 158.459 248.422C158.459 242.338 160.513 237.32 164.621 233.368C168.781 229.416 173.825 227.44 179.753 227.44C185.681 227.44 190.699 229.416 194.807 233.368C198.967 237.32 201.047 242.338 201.047 248.422C201.047 254.506 198.967 259.524 194.807 263.476C190.699 267.428 185.681 269.404 179.753 269.404C173.825 269.404 168.781 267.428 164.621 263.476Z" fill="#2B2522"/>
<path d="M206.236 229H213.646V283.6H206.236V229ZM217.624 238.594C214.972 241.194 213.646 244.522 213.646 248.578C213.646 252.582 214.972 255.884 217.624 258.484C220.328 261.084 223.63 262.384 227.53 262.384C231.43 262.384 234.706 261.084 237.358 258.484C240.062 255.884 241.414 252.582 241.414 248.578C241.414 244.522 240.062 241.194 237.358 238.594C234.706 235.942 231.43 234.616 227.53 234.616C223.63 234.616 220.328 235.942 217.624 238.594ZM215.908 263.554C212.32 259.602 210.526 254.61 210.526 248.578C210.526 242.494 212.32 237.476 215.908 233.524C219.548 229.52 224.02 227.518 229.324 227.518C234.784 227.518 239.386 229.52 243.13 233.524C246.926 237.476 248.824 242.468 248.824 248.5C248.824 254.532 246.926 259.55 243.13 263.554C239.386 267.506 234.784 269.482 229.324 269.482C224.02 269.482 219.548 267.506 215.908 263.554Z" fill="#2B2522"/>
<path d="M290.246 268H282.836V238.282L262.712 268H253.976V229H261.386V257.938L281.588 229H290.246V268Z" fill="#2B2522"/>
<path d="M315.324 223.15C311.58 223.15 308.408 221.928 305.808 219.484C303.208 217.04 301.882 214.076 301.83 210.592H307.914C307.914 212.62 308.616 214.31 310.02 215.662C311.424 216.962 313.218 217.612 315.402 217.612C317.638 217.612 319.51 216.936 321.018 215.584C322.578 214.18 323.358 212.516 323.358 210.592H329.442C329.442 213.972 328.038 216.91 325.23 219.406C322.422 221.902 319.12 223.15 315.324 223.15ZM333.264 268H325.854V238.282L305.73 268H296.994V229H304.404V257.938L324.606 229H333.264V268Z" fill="#2B2522"/>
<path d="M47.1927 295.438C44.5407 298.038 43.2147 301.366 43.2147 305.422C43.2147 309.478 44.5407 312.806 47.1927 315.406C49.8967 318.006 53.1987 319.306 57.0987 319.306C60.9987 319.306 64.2747 318.006 66.9267 315.406C69.6307 312.806 70.9827 309.478 70.9827 305.422C70.9827 301.366 69.6307 298.038 66.9267 295.438C64.2747 292.838 60.9987 291.538 57.0987 291.538C53.1987 291.538 49.8967 292.838 47.1927 295.438ZM41.9667 320.476C37.8587 316.524 35.8047 311.506 35.8047 305.422C35.8047 299.338 37.8587 294.32 41.9667 290.368C46.1267 286.416 51.1707 284.44 57.0987 284.44C63.0267 284.44 68.0447 286.416 72.1527 290.368C76.3127 294.32 78.3927 299.338 78.3927 305.422C78.3927 311.506 76.3127 316.524 72.1527 320.476C68.0447 324.428 63.0267 326.404 57.0987 326.404C51.1707 326.404 46.1267 324.428 41.9667 320.476Z" fill="#2B2522"/>
<path d="M102.605 325V286H129.593V292.942H110.015V325H102.605Z" fill="#2B2522"/>
<path d="M134.806 317.746C136.834 317.746 138.394 317.096 139.486 315.796C140.63 314.496 141.202 312.858 141.202 310.882V286H169.906V325H162.496V293.254H148.69V311.974C148.69 315.51 147.468 318.578 145.024 321.178C142.58 323.726 139.434 325 135.586 325H133.012V317.746H134.806Z" fill="#2B2522"/>
<path d="M199.849 307.606L189.553 308.854C184.821 309.426 182.455 311.194 182.455 314.158C182.455 315.718 183.105 316.966 184.405 317.902C185.705 318.786 187.473 319.228 189.709 319.228C192.777 319.228 195.221 318.344 197.041 316.576C198.913 314.808 199.849 312.468 199.849 309.556H202.657C202.657 314.236 201.227 318.136 198.367 321.256C195.507 324.324 191.945 325.858 187.681 325.858C183.989 325.858 180.947 324.818 178.555 322.738C176.215 320.606 175.045 317.876 175.045 314.548C175.045 311.272 176.189 308.568 178.477 306.436C180.765 304.252 183.885 302.952 187.837 302.536L199.849 301.132V299.884C199.849 297.752 198.991 295.906 197.275 294.346C195.559 292.786 193.505 292.006 191.113 292.006C188.877 292.006 186.901 292.604 185.185 293.8C183.469 294.996 182.377 296.53 181.909 298.402L174.967 296.14C175.955 292.864 177.905 290.212 180.817 288.184C183.729 286.156 187.031 285.142 190.723 285.142C195.247 285.142 199.147 286.546 202.423 289.354C205.699 292.162 207.337 295.49 207.337 299.338V325H199.849V307.606Z" fill="#2B2522"/>
<path d="M236.45 292.708H221.396V302.38H237.074C238.634 302.38 239.934 301.964 240.974 301.132C242.066 300.248 242.612 299.156 242.612 297.856C242.612 296.348 242.014 295.126 240.818 294.19C239.674 293.202 238.218 292.708 236.45 292.708ZM237.23 308.308H221.396V318.292H237.23C238.998 318.292 240.454 317.824 241.598 316.888C242.794 315.952 243.392 314.808 243.392 313.456C243.392 311.948 242.794 310.726 241.598 309.79C240.454 308.802 238.998 308.308 237.23 308.308ZM238.01 325H213.986V286H237.23C240.87 286 243.912 287.014 246.356 289.042C248.8 291.07 250.022 293.644 250.022 296.764C250.022 298.48 249.554 300.066 248.618 301.522C247.734 302.926 246.486 303.992 244.874 304.72C246.694 305.656 248.124 306.982 249.164 308.698C250.256 310.362 250.802 312.234 250.802 314.314C250.802 317.33 249.58 319.878 247.136 321.958C244.692 323.986 241.65 325 238.01 325Z" fill="#2B2522"/>
<path d="M256.013 325V286H263.423V301.912H285.965V286H293.375V325H285.965V308.932H263.423V325H256.013Z" fill="#2B2522"/>
<path d="M309.925 295.438C307.273 298.038 305.947 301.366 305.947 305.422C305.947 309.478 307.273 312.806 309.925 315.406C312.629 318.006 315.931 319.306 319.831 319.306C323.731 319.306 327.007 318.006 329.659 315.406C332.363 312.806 333.715 309.478 333.715 305.422C333.715 301.366 332.363 298.038 329.659 295.438C327.007 292.838 323.731 291.538 319.831 291.538C315.931 291.538 312.629 292.838 309.925 295.438ZM304.699 320.476C300.591 316.524 298.537 311.506 298.537 305.422C298.537 299.338 300.591 294.32 304.699 290.368C308.859 286.416 313.903 284.44 319.831 284.44C325.759 284.44 330.777 286.416 334.885 290.368C339.045 294.32 341.125 299.338 341.125 305.422C341.125 311.506 339.045 316.524 334.885 320.476C330.777 324.428 325.759 326.404 319.831 326.404C313.903 326.404 308.859 324.428 304.699 320.476Z" fill="#2B2522"/>
<path d="M346.314 325V286H354.894L369.48 310.336L384.066 286H392.646V325H385.236V296.452L371.898 319.228H367.218L353.724 296.452V325H346.314Z" fill="#2B2522"/>
<path d="M73.6347 268H66.2247V238.282L46.1007 268H37.3647V229H44.7747V257.938L64.9767 229H73.6347V268Z" stroke="#2B2522" stroke-width="0.72" mask="url(#path-1-outside-1_168_199)"/>
<path d="M90.1323 238.438C87.5323 241.038 86.2323 244.366 86.2323 248.422C86.2323 252.478 87.5323 255.806 90.1323 258.406C92.7323 261.006 95.9303 262.306 99.7263 262.306C102.43 262.306 104.874 261.656 107.058 260.356C109.294 259.004 110.958 257.132 112.05 254.74L118.914 257.86C117.146 261.396 114.546 264.204 111.114 266.284C107.682 268.364 103.886 269.404 99.7263 269.404C93.9023 269.404 88.9623 267.428 84.9063 263.476C80.8503 259.524 78.8223 254.506 78.8223 248.422C78.8223 242.338 80.8503 237.32 84.9063 233.368C88.9623 229.416 93.9023 227.44 99.7263 227.44C103.99 227.44 107.838 228.506 111.27 230.638C114.754 232.77 117.354 235.682 119.07 239.374L112.206 242.494C111.114 239.998 109.45 238.048 107.214 236.644C104.978 235.24 102.482 234.538 99.7263 234.538C95.9303 234.538 92.7323 235.838 90.1323 238.438Z" stroke="#2B2522" stroke-width="0.72" mask="url(#path-1-outside-1_168_199)"/>
<path d="M155.284 229V235.942H142.414V268H135.004V235.942H122.134V229H155.284Z" stroke="#2B2522" stroke-width="0.72" mask="url(#path-1-outside-1_168_199)"/>
<path d="M169.847 238.438C167.195 241.038 165.869 244.366 165.869 248.422C165.869 252.478 167.195 255.806 169.847 258.406C172.551 261.006 175.853 262.306 179.753 262.306C183.653 262.306 186.929 261.006 189.581 258.406C192.285 255.806 193.637 252.478 193.637 248.422C193.637 244.366 192.285 241.038 189.581 238.438C186.929 235.838 183.653 234.538 179.753 234.538C175.853 234.538 172.551 235.838 169.847 238.438ZM164.621 263.476C160.513 259.524 158.459 254.506 158.459 248.422C158.459 242.338 160.513 237.32 164.621 233.368C168.781 229.416 173.825 227.44 179.753 227.44C185.681 227.44 190.699 229.416 194.807 233.368C198.967 237.32 201.047 242.338 201.047 248.422C201.047 254.506 198.967 259.524 194.807 263.476C190.699 267.428 185.681 269.404 179.753 269.404C173.825 269.404 168.781 267.428 164.621 263.476Z" stroke="#2B2522" stroke-width="0.72" mask="url(#path-1-outside-1_168_199)"/>
<path d="M206.236 229H213.646V283.6H206.236V229ZM217.624 238.594C214.972 241.194 213.646 244.522 213.646 248.578C213.646 252.582 214.972 255.884 217.624 258.484C220.328 261.084 223.63 262.384 227.53 262.384C231.43 262.384 234.706 261.084 237.358 258.484C240.062 255.884 241.414 252.582 241.414 248.578C241.414 244.522 240.062 241.194 237.358 238.594C234.706 235.942 231.43 234.616 227.53 234.616C223.63 234.616 220.328 235.942 217.624 238.594ZM215.908 263.554C212.32 259.602 210.526 254.61 210.526 248.578C210.526 242.494 212.32 237.476 215.908 233.524C219.548 229.52 224.02 227.518 229.324 227.518C234.784 227.518 239.386 229.52 243.13 233.524C246.926 237.476 248.824 242.468 248.824 248.5C248.824 254.532 246.926 259.55 243.13 263.554C239.386 267.506 234.784 269.482 229.324 269.482C224.02 269.482 219.548 267.506 215.908 263.554Z" stroke="#2B2522" stroke-width="0.72" mask="url(#path-1-outside-1_168_199)"/>
<path d="M290.246 268H282.836V238.282L262.712 268H253.976V229H261.386V257.938L281.588 229H290.246V268Z" stroke="#2B2522" stroke-width="0.72" mask="url(#path-1-outside-1_168_199)"/>
<path d="M315.324 223.15C311.58 223.15 308.408 221.928 305.808 219.484C303.208 217.04 301.882 214.076 301.83 210.592H307.914C307.914 212.62 308.616 214.31 310.02 215.662C311.424 216.962 313.218 217.612 315.402 217.612C317.638 217.612 319.51 216.936 321.018 215.584C322.578 214.18 323.358 212.516 323.358 210.592H329.442C329.442 213.972 328.038 216.91 325.23 219.406C322.422 221.902 319.12 223.15 315.324 223.15ZM333.264 268H325.854V238.282L305.73 268H296.994V229H304.404V257.938L324.606 229H333.264V268Z" stroke="#2B2522" stroke-width="0.72" mask="url(#path-1-outside-1_168_199)"/>
<path d="M47.1927 295.438C44.5407 298.038 43.2147 301.366 43.2147 305.422C43.2147 309.478 44.5407 312.806 47.1927 315.406C49.8967 318.006 53.1987 319.306 57.0987 319.306C60.9987 319.306 64.2747 318.006 66.9267 315.406C69.6307 312.806 70.9827 309.478 70.9827 305.422C70.9827 301.366 69.6307 298.038 66.9267 295.438C64.2747 292.838 60.9987 291.538 57.0987 291.538C53.1987 291.538 49.8967 292.838 47.1927 295.438ZM41.9667 320.476C37.8587 316.524 35.8047 311.506 35.8047 305.422C35.8047 299.338 37.8587 294.32 41.9667 290.368C46.1267 286.416 51.1707 284.44 57.0987 284.44C63.0267 284.44 68.0447 286.416 72.1527 290.368C76.3127 294.32 78.3927 299.338 78.3927 305.422C78.3927 311.506 76.3127 316.524 72.1527 320.476C68.0447 324.428 63.0267 326.404 57.0987 326.404C51.1707 326.404 46.1267 324.428 41.9667 320.476Z" stroke="#2B2522" stroke-width="0.72" mask="url(#path-1-outside-1_168_199)"/>
<path d="M102.605 325V286H129.593V292.942H110.015V325H102.605Z" stroke="#2B2522" stroke-width="0.72" mask="url(#path-1-outside-1_168_199)"/>
<path d="M134.806 317.746C136.834 317.746 138.394 317.096 139.486 315.796C140.63 314.496 141.202 312.858 141.202 310.882V286H169.906V325H162.496V293.254H148.69V311.974C148.69 315.51 147.468 318.578 145.024 321.178C142.58 323.726 139.434 325 135.586 325H133.012V317.746H134.806Z" stroke="#2B2522" stroke-width="0.72" mask="url(#path-1-outside-1_168_199)"/>
<path d="M199.849 307.606L189.553 308.854C184.821 309.426 182.455 311.194 182.455 314.158C182.455 315.718 183.105 316.966 184.405 317.902C185.705 318.786 187.473 319.228 189.709 319.228C192.777 319.228 195.221 318.344 197.041 316.576C198.913 314.808 199.849 312.468 199.849 309.556H202.657C202.657 314.236 201.227 318.136 198.367 321.256C195.507 324.324 191.945 325.858 187.681 325.858C183.989 325.858 180.947 324.818 178.555 322.738C176.215 320.606 175.045 317.876 175.045 314.548C175.045 311.272 176.189 308.568 178.477 306.436C180.765 304.252 183.885 302.952 187.837 302.536L199.849 301.132V299.884C199.849 297.752 198.991 295.906 197.275 294.346C195.559 292.786 193.505 292.006 191.113 292.006C188.877 292.006 186.901 292.604 185.185 293.8C183.469 294.996 182.377 296.53 181.909 298.402L174.967 296.14C175.955 292.864 177.905 290.212 180.817 288.184C183.729 286.156 187.031 285.142 190.723 285.142C195.247 285.142 199.147 286.546 202.423 289.354C205.699 292.162 207.337 295.49 207.337 299.338V325H199.849V307.606Z" stroke="#2B2522" stroke-width="0.72" mask="url(#path-1-outside-1_168_199)"/>
<path d="M236.45 292.708H221.396V302.38H237.074C238.634 302.38 239.934 301.964 240.974 301.132C242.066 300.248 242.612 299.156 242.612 297.856C242.612 296.348 242.014 295.126 240.818 294.19C239.674 293.202 238.218 292.708 236.45 292.708ZM237.23 308.308H221.396V318.292H237.23C238.998 318.292 240.454 317.824 241.598 316.888C242.794 315.952 243.392 314.808 243.392 313.456C243.392 311.948 242.794 310.726 241.598 309.79C240.454 308.802 238.998 308.308 237.23 308.308ZM238.01 325H213.986V286H237.23C240.87 286 243.912 287.014 246.356 289.042C248.8 291.07 250.022 293.644 250.022 296.764C250.022 298.48 249.554 300.066 248.618 301.522C247.734 302.926 246.486 303.992 244.874 304.72C246.694 305.656 248.124 306.982 249.164 308.698C250.256 310.362 250.802 312.234 250.802 314.314C250.802 317.33 249.58 319.878 247.136 321.958C244.692 323.986 241.65 325 238.01 325Z" stroke="#2B2522" stroke-width="0.72" mask="url(#path-1-outside-1_168_199)"/>
<path d="M256.013 325V286H263.423V301.912H285.965V286H293.375V325H285.965V308.932H263.423V325H256.013Z" stroke="#2B2522" stroke-width="0.72" mask="url(#path-1-outside-1_168_199)"/>
<path d="M309.925 295.438C307.273 298.038 305.947 301.366 305.947 305.422C305.947 309.478 307.273 312.806 309.925 315.406C312.629 318.006 315.931 319.306 319.831 319.306C323.731 319.306 327.007 318.006 329.659 315.406C332.363 312.806 333.715 309.478 333.715 305.422C333.715 301.366 332.363 298.038 329.659 295.438C327.007 292.838 323.731 291.538 319.831 291.538C315.931 291.538 312.629 292.838 309.925 295.438ZM304.699 320.476C300.591 316.524 298.537 311.506 298.537 305.422C298.537 299.338 300.591 294.32 304.699 290.368C308.859 286.416 313.903 284.44 319.831 284.44C325.759 284.44 330.777 286.416 334.885 290.368C339.045 294.32 341.125 299.338 341.125 305.422C341.125 311.506 339.045 316.524 334.885 320.476C330.777 324.428 325.759 326.404 319.831 326.404C313.903 326.404 308.859 324.428 304.699 320.476Z" stroke="#2B2522" stroke-width="0.72" mask="url(#path-1-outside-1_168_199)"/>
<path d="M346.314 325V286H354.894L369.48 310.336L384.066 286H392.646V325H385.236V296.452L371.898 319.228H367.218L353.724 296.452V325H346.314Z" stroke="#2B2522" stroke-width="0.72" mask="url(#path-1-outside-1_168_199)"/>
<path d="M108.54 38.9863C112.586 38.9863 116.371 39.7954 119.887 41.417C123.523 42.9003 126.692 44.9911 129.391 47.6895C132.087 50.3861 134.177 53.5537 135.66 57.1865C137.284 60.7046 138.095 64.4913 138.095 68.54V86.251C138.095 92.9906 136.003 98.9985 131.827 104.258L131.828 104.259L129.26 107.743L131.828 111.228C136.001 116.616 138.095 122.624 138.095 129.235V146.946C138.095 150.995 137.284 154.845 135.663 158.492C134.18 162.128 132.089 165.298 129.391 167.996L129.382 168.005C126.684 170.568 123.518 172.655 119.888 174.269L119.879 174.271C116.364 175.758 112.583 176.5 108.54 176.5H64.1631C60.1205 176.5 56.2754 175.759 52.6318 174.274L52.6211 174.271L52.6113 174.266C49.1143 172.652 46.0167 170.565 43.3223 168.005L43.3125 167.996C40.6139 165.297 38.4576 162.128 36.8418 158.492L36.8379 158.485L36.835 158.478C35.3507 154.834 34.6094 150.989 34.6094 146.946V129.235C34.6094 122.62 36.7046 116.609 40.8828 111.218L40.8857 111.215L43.626 107.743L40.8857 104.272V104.271C36.7034 99.0091 34.6094 92.9961 34.6094 86.251V68.54C34.6094 64.4975 35.3509 60.7159 36.8379 57.2012L36.8418 57.1934C38.4576 53.5578 40.6139 50.3881 43.3125 47.6895C46.0092 44.9928 49.1118 42.9012 52.6172 41.417C56.264 39.7962 60.1144 38.9864 64.1631 38.9863H108.54ZM247.296 38.9863C251.342 38.9863 255.126 39.7954 258.643 41.417C262.278 42.9003 265.448 44.9911 268.146 47.6895C270.843 50.3861 272.933 53.5537 274.416 57.1865C276.04 60.7046 276.851 64.4913 276.851 68.54V146.946C276.851 150.995 276.04 154.845 274.419 158.492C272.936 162.128 270.845 165.298 268.146 167.996L268.138 168.005C265.44 170.568 262.274 172.655 258.644 174.269L258.635 174.271C255.12 175.758 251.339 176.5 247.296 176.5H202.919C198.876 176.5 195.031 175.759 191.388 174.274L191.377 174.271L191.367 174.266C187.87 172.652 184.773 170.565 182.078 168.005L182.068 167.996C179.37 165.297 177.213 162.128 175.598 158.492L175.594 158.485L175.591 158.478C174.107 154.834 173.365 150.989 173.365 146.946V68.54C173.365 64.4975 174.107 60.7159 175.594 57.2012L175.598 57.1934C177.213 53.5578 179.37 50.3881 182.068 47.6895C184.765 44.9928 187.868 42.9013 191.373 41.417C195.02 39.7962 198.87 38.9864 202.919 38.9863H247.296ZM64.1631 115.806C60.4521 115.806 57.262 117.143 54.5674 119.838C52.0104 122.395 50.7334 125.517 50.7334 129.235V146.946C50.7334 150.657 52.0049 153.845 54.5586 156.534L54.8125 156.771C57.4516 159.177 60.5605 160.376 64.1631 160.376H108.54C112.258 160.376 115.381 159.1 117.938 156.543C120.632 153.848 121.971 150.657 121.971 146.946V129.235C121.971 125.525 120.633 122.406 117.946 119.847L117.938 119.838L117.93 119.829C115.371 117.142 112.251 115.806 108.54 115.806H64.1631ZM202.919 55.1104C199.208 55.1104 196.018 56.4481 193.323 59.1426C190.766 61.6995 189.489 64.8217 189.489 68.54V146.946C189.489 150.657 190.761 153.845 193.314 156.534L193.568 156.771C196.207 159.177 199.316 160.376 202.919 160.376H247.296C251.014 160.376 254.136 159.1 256.693 156.543C259.388 153.848 260.727 150.657 260.727 146.946V68.54C260.726 64.8297 259.389 61.7103 256.702 59.1514L256.693 59.1426L256.686 59.1338C254.127 56.4469 251.006 55.1104 247.296 55.1104H202.919ZM229.983 93.7109C230.788 93.711 231.5 94.036 232.106 94.6338C232.866 95.2497 233.269 96.0464 233.27 96.9971V118.688C233.269 119.64 232.866 120.437 232.105 121.053C231.499 121.65 230.788 121.975 229.983 121.975H220.432C219.426 121.975 218.579 121.723 217.988 121.132C217.397 120.541 217.146 119.694 217.146 118.688V96.9971C217.146 95.9915 217.397 95.1458 217.988 94.5547C218.579 93.9635 219.426 93.7109 220.432 93.7109H229.983ZM64.1631 55.1104C60.4522 55.1104 57.262 56.4481 54.5674 59.1426C52.0105 61.6995 50.7335 64.8217 50.7334 68.54V86.251C50.7334 89.9618 52.005 93.1495 54.5586 95.8389L54.8125 96.0762C57.4515 98.4826 60.5606 99.6816 64.1631 99.6816H108.54C112.258 99.6816 115.381 98.4045 117.938 95.8477C120.632 93.1529 121.971 89.9622 121.971 86.251V68.54C121.971 64.8297 120.633 61.7103 117.946 59.1514L117.938 59.1426L117.93 59.1338C115.371 56.4469 112.251 55.1104 108.54 55.1104H64.1631Z" fill="#D84B31" stroke="#D84B31"/>
</svg>
