<svg width="541" height="126" viewBox="0 0 541 126" fill="none" xmlns="http://www.w3.org/2000/svg">
<g clip-path="url(#clip0_162_185)">
<path d="M61.3855 56.1254L28.5622 55.9584L69.821 18.959L70.3222 18.5414C73.4959 15.7018 74.8322 13.0291 74.8322 9.85536C74.8322 8.18496 74.4146 6.59808 73.5794 5.17824C71.909 2.67264 69.0694 1.08576 65.5615 1.00224H10.4383C4.5084 1.00224 0.75 5.0112 0.75 10.5235C0.75 16.2864 4.5084 20.0448 10.4383 20.0448H40.8396L11.1065 47.6064C5.84472 52.6176 3.84024 56.376 3.84024 60.719C3.84024 67.9853 9.43608 72.0778 18.4562 72.0778L50.1103 72.1613L8.76792 106.572C4.5084 110.163 2.4204 113.003 2.4204 116.51C2.4204 121.522 5.7612 125.113 11.1065 125.28C13.7791 125.447 16.8694 124.445 19.9596 121.772L66.5638 81.6826C73.5794 75.6691 75.0828 71.4931 75.0828 67.4842C75.0828 60.8861 69.821 56.1254 61.3855 56.1254ZM443.155 1.00224C437.727 1.00224 434.302 3.3408 430.627 7.85088L390.872 55.8749L390.788 10.0224C390.788 4.42656 386.696 0.91872 381.267 0.91872C375.838 0.91872 371.746 4.42656 371.746 10.0224L371.829 72.8294C371.829 80.9309 376.924 84.1882 382.77 84.1882C387.364 84.1882 390.705 82.0166 395.633 76.0867L434.553 28.7309V75.001C434.553 80.5968 438.645 84.1046 444.074 84.1046C449.503 84.1046 453.595 80.5968 453.595 75.001V14.0314C453.595 6.09696 449.753 1.00224 443.155 1.00224ZM531.269 66.816H487.087V50.6131H527.344C532.772 50.6131 535.529 47.4394 535.529 42.5117C535.529 37.584 532.856 34.2432 527.427 34.2432H487.17V18.1238H529.181C534.693 18.1238 538.452 14.8666 538.452 9.77184C538.452 4.76064 534.693 1.16928 529.181 1.16928H485.584C474.475 1.16928 468.211 6.51456 468.211 17.9568V67.2336C468.211 78.6758 474.475 83.7706 485.584 83.7706H531.353C537.199 83.7706 540.039 80.1792 540.039 75.168C539.955 70.0733 537.115 66.816 531.269 66.816ZM252.73 0.91872C247.301 0.91872 243.209 4.25952 243.209 9.77184V11.2752C237.613 5.34528 229.177 0 218.487 0C193.347 0 176.309 18.2074 176.309 42.9293C176.309 67.9853 193.347 85.0234 217.902 85.0234C229.261 85.0234 237.696 79.7616 243.209 73.7482V75.335C243.209 80.9309 247.301 84.1882 252.73 84.1882C258.159 84.1882 262.251 80.6803 262.251 75.0845V9.93888C262.168 4.25952 258.075 0.91872 252.73 0.91872ZM220.241 67.7347C206.46 67.7347 196.02 57.2112 196.02 42.9293C196.02 28.3133 206.376 17.2886 220.408 17.2886C234.69 17.2886 244.545 28.3133 244.545 42.9293C244.545 57.2112 234.857 67.7347 220.241 67.7347ZM155.68 0.91872C150.251 0.91872 146.158 4.42656 146.158 10.0224V34.1597H103.563V10.0224C103.563 4.42656 99.4706 0.91872 94.0418 0.91872C88.613 0.91872 84.5206 4.42656 84.5206 10.0224V75.0845C84.5206 80.6803 88.613 84.1882 94.0418 84.1882C99.4706 84.1882 103.563 80.6803 103.563 75.0845V52.033H146.158V75.168C146.158 80.7638 150.251 84.2717 155.68 84.2717C161.108 84.2717 165.201 80.7638 165.201 75.168V10.0224C165.201 4.42656 161.108 0.91872 155.68 0.91872ZM347.859 0.91872C342.43 0.91872 338.338 4.42656 338.338 10.0224V33.9091H295.743V10.0224C295.743 4.42656 291.65 0.91872 286.221 0.91872C280.793 0.91872 276.7 4.42656 276.7 10.0224V75.0845C276.7 80.6803 280.793 84.1882 286.221 84.1882C291.65 84.1882 295.743 80.6803 295.743 75.0845V51.8659H338.338V75.0845C338.338 80.6803 342.43 84.1882 347.859 84.1882C353.288 84.1882 357.38 80.6803 357.38 75.0845V10.0224C357.297 4.42656 353.288 0.91872 347.859 0.91872Z" fill="#2B2522"/>
</g>
<defs>
<clipPath id="clip0_162_185">
<rect width="540.374" height="125.28" fill="white"/>
</clipPath>
</defs>
</svg>
